<svg width="36" height="36" viewBox="0 0 36 36" fill="none" xmlns="http://www.w3.org/2000/svg">
<rect width="36" height="36" fill="white"/>
<path d="M25.2658 14.2369C25.0683 14.121 24.7874 14.1515 24.6382 14.3052L18.5724 20.5579V17.396L24.1185 11.3696C24.2625 11.2131 24.2161 10.9953 24.0149 10.8833C23.8136 10.7712 23.5336 10.8072 23.3896 10.9639L21.8236 12.6655L21.8919 12.4445C21.9305 12.3197 21.8317 12.1942 21.6713 12.1643C21.5112 12.1343 21.3495 12.2111 21.311 12.3359L20.8982 13.6711L18.5724 16.1983V14.2039L20.3864 11.0797L21.9491 9.95929C22.0705 9.87232 22.0782 9.72529 21.9663 9.63095C21.8545 9.53661 21.6655 9.53057 21.5442 9.61759L21.0151 9.99693L22.0099 8.28376C22.1118 8.10832 22.0115 7.90187 21.7859 7.82263C21.5602 7.74339 21.2949 7.82141 21.193 7.99685L18.5724 12.5102V9.43217L20.195 6.3402C20.2885 6.16197 20.1785 5.95854 19.9494 5.88575C19.7203 5.81314 19.4587 5.89853 19.3651 6.07676L18.5724 7.58742V6.48636L19.566 4.22295C19.6193 4.10154 19.536 3.96944 19.3798 3.92796C19.2238 3.8866 19.0539 3.95137 19.0006 4.07278L18.5724 5.04813V1.79002L18.8696 1.44334C18.9611 1.33656 18.924 1.19232 18.7867 1.1211C18.7211 1.08706 18.6445 1.07649 18.5724 1.08578V0.348548C18.5724 0.156091 18.3717 0 18.1242 0C17.8768 0 17.6761 0.156091 17.6761 0.348548V2.67354L17.3979 2.24081C17.3241 2.12602 17.1446 2.07955 16.997 2.13689C16.8494 2.19428 16.7897 2.33388 16.8634 2.44866L17.676 3.71267V8.24124L16.3378 6.10888L16.353 5.5695C16.3566 5.44124 16.2258 5.33493 16.0608 5.33214C15.9928 5.33098 15.93 5.34846 15.8789 5.37763L15.1323 4.18809C15.0238 4.0151 14.7555 3.94324 14.533 4.02776C14.3106 4.11222 14.2183 4.32089 14.3269 4.49388L17.676 9.83056V11.6599L14.0022 8.1146C13.8468 7.96472 13.5647 7.94114 13.372 8.06197C13.1793 8.18274 13.149 8.40215 13.3043 8.55208L14.3298 9.54173L13.8877 9.47335C13.726 9.44832 13.5686 9.53011 13.5364 9.65599C13.5042 9.78188 13.6094 9.90416 13.7712 9.92919L14.9146 10.106L17.676 12.7707V17.0804L12.5099 12.1694C12.3532 12.0205 12.0708 11.9985 11.8793 12.1204C11.6877 12.2423 11.6595 12.4619 11.8162 12.6109L12.8493 13.5929L12.2724 13.458C12.1143 13.4209 11.9477 13.4907 11.9003 13.6136C11.8528 13.7365 11.9423 13.866 12.1004 13.903L13.5265 14.2365L17.676 18.1812V21.3598L13.9106 17.9203L13.701 16.7373C13.6785 16.6102 13.5276 16.5211 13.3643 16.5388C13.2009 16.5562 13.0866 16.6735 13.1091 16.8006L13.191 17.263L11.3453 15.5771C11.1848 15.4305 10.902 15.4129 10.7135 15.5376C10.5251 15.6624 10.5024 15.8824 10.6628 16.029L17.676 22.435V24.4282L13.0635 20.8407C12.8885 20.7045 12.6047 20.7045 12.4297 20.8407C12.2547 20.9768 12.2547 21.1975 12.4297 21.3336L17.6761 25.4141V27.6515C17.6761 27.8439 17.8768 28 18.1242 28C18.3717 28 18.5724 27.8439 18.5724 27.6515V23.5361L19.8888 22.2967C20.0464 22.1482 20.0195 21.9286 19.8287 21.806C19.6379 21.6834 19.3555 21.7044 19.1978 21.8527L18.5724 22.4416V21.7152L22.9745 17.1775L24.1471 16.768C24.2976 16.7155 24.3648 16.578 24.2972 16.4609C24.2297 16.3438 24.0529 16.2915 23.9022 16.3441L23.7219 16.4071L25.3537 14.7251C25.5027 14.5714 25.4635 14.3528 25.2658 14.2369Z" fill="#0C5913"/>
</svg>
